                                                                        S0000001
,,31HOpen CASCADE IGES processor 6.2,13HFilename.iges,                  G0000001
16HOpen CASCADE 6.2,31HOpen CASCADE IGES processor 6.2,32,308,15,308,15,G0000002
,1.,2,2HMM,1,0.01,15H20090315.222127,1.25E-07,2.5,5Hmikko,,11,0,        G0000003
15H20090315.222127,;                                                    G0000004
     186       1       0       0       0       0       0       000000000D0000001
     186       0       0       1       0                               0D0000002
     514       2       0       0       0       0       0       000010000D0000003
     514       0       0       1       1                               0D0000004
     510       3       0       0       0       0       0       000010000D0000005
     510       0       0       1       1                               0D0000006
     190       4       0       0       0       0       0       000010000D0000007
     190       0       0       1       1                               0D0000008
     116       5       0       0       0       0       0       000010400D0000009
     116       0       0       1       0                               0D0000010
     123       6       0       0       0       0       0       000010200D0000011
     123       0       0       1       0                               0D0000012
     123       7       0       0       0       0       0       000010200D0000013
     123       0       0       1       0                               0D0000014
     508       8       0       0       0       0       0       000010000D0000015
     508       0       0       2       1                               0D0000016
     504      10       0       0       0       0       0       000010001D0000017
     504       0       0       6       1                               0D0000018
     110      16       0       0       0       0       0       000010000D0000019
     110       0       0       1       0                               0D0000020
     502      17       0       0       0       0       0       000010000D0000021
     502       0       0       4       1                               0D0000022
     110      21       0       0       0       0       0       000010000D0000023
     110       0       0       1       0                               0D0000024
     110      22       0       0       0       0       0       000010000D0000025
     110       0       0       1       0                               0D0000026
     110      23       0       0       0       0       0       000010000D0000027
     110       0       0       1       0                               0D0000028
     110      24       0       0       0       0       0       000010000D0000029
     110       0       0       1       0                               0D0000030
     110      25       0       0       0       0       0       000010000D0000031
     110       0       0       1       0                               0D0000032
     110      26       0       0       0       0       0       000010000D0000033
     110       0       0       1       0                               0D0000034
     110      27       0       0       0       0       0       000010000D0000035
     110       0       0       1       0                               0D0000036
     110      28       0       0       0       0       0       000010000D0000037
     110       0       0       1       0                               0D0000038
     110      29       0       0       0       0       0       000010000D0000039
     110       0       0       1       0                               0D0000040
     110      30       0       0       0       0       0       000010000D0000041
     110       0       0       1       0                               0D0000042
     110      31       0       0       0       0       0       000010000D0000043
     110       0       0       1       0                               0D0000044
     110      32       0       0       0       0       0       000010000D0000045
     110       0       0       1       0                               0D0000046
     110      33       0       0       0       0       0       000010000D0000047
     110       0       0       1       0                               0D0000048
     110      34       0       0       0       0       0       000010000D0000049
     110       0       0       1       0                               0D0000050
     110      35       0       0       0       0       0       000010000D0000051
     110       0       0       1       0                               0D0000052
     110      36       0       0       0       0       0       000010000D0000053
     110       0       0       1       0                               0D0000054
     110      37       0       0       0       0       0       000010000D0000055
     110       0       0       1       0                               0D0000056
     110      38       0       0       0       0       0       000010000D0000057
     110       0       0       1       0                               0D0000058
     110      39       0       0       0       0       0       000010000D0000059
     110       0       0       1       0                               0D0000060
     110      40       0       0       0       0       0       000010000D0000061
     110       0       0       1       0                               0D0000062
     110      41       0       0       0       0       0       000010000D0000063
     110       0       0       1       0                               0D0000064
     110      42       0       0       0       0       0       000010000D0000065
     110       0       0       1       0                               0D0000066
     110      43       0       0       0       0       0       000010000D0000067
     110       0       0       1       0                               0D0000068
     110      44       0       0       0       0       0       000010000D0000069
     110       0       0       1       0                               0D0000070
     110      45       0       0       0       0       0       000010000D0000071
     110       0       0       1       0                               0D0000072
     110      46       0       0       0       0       0       000010000D0000073
     110       0       0       1       0                               0D0000074
     110      47       0       0       0       0       0       000010000D0000075
     110       0       0       1       0                               0D0000076
     510      48       0       0       0       0       0       000010000D0000077
     510       0       0       1       1                               0D0000078
     190      49       0       0       0       0       0       000010000D0000079
     190       0       0       1       1                               0D0000080
     116      50       0       0       0       0       0       000010400D0000081
     116       0       0       1       0                               0D0000082
     123      51       0       0       0       0       0       000010200D0000083
     123       0       0       1       0                               0D0000084
     123      52       0       0       0       0       0       000010200D0000085
     123       0       0       1       0                               0D0000086
     508      53       0       0       0       0       0       000010000D0000087
     508       0       0       2       1                               0D0000088
     110      55       0       0       0       0       0       000010000D0000089
     110       0       0       1       0                               0D0000090
     110      56       0       0       0       0       0       000010000D0000091
     110       0       0       1       0                               0D0000092
     110      57       0       0       0       0       0       000010000D0000093
     110       0       0       1       0                               0D0000094
     110      58       0       0       0       0       0       000010000D0000095
     110       0       0       1       0                               0D0000096
     510      59       0       0       0       0       0       000010000D0000097
     510       0       0       1       1                               0D0000098
     190      60       0       0       0       0       0       000010000D0000099
     190       0       0       1       1                               0D0000100
     116      61       0       0       0       0       0       000010400D0000101
     116       0       0       1       0                               0D0000102
     123      62       0       0       0       0       0       000010200D0000103
     123       0       0       1       0                               0D0000104
     123      63       0       0       0       0       0       000010200D0000105
     123       0       0       1       0                               0D0000106
     508      64       0       0       0       0       0       000010000D0000107
     508       0       0       2       1                               0D0000108
     110      66       0       0       0       0       0       000010000D0000109
     110       0       0       1       0                               0D0000110
     110      67       0       0       0       0       0       000010000D0000111
     110       0       0       1       0                               0D0000112
     110      68       0       0       0       0       0       000010000D0000113
     110       0       0       1       0                               0D0000114
     110      69       0       0       0       0       0       000010000D0000115
     110       0       0       1       0                               0D0000116
     508      70       0       0       0       0       0       000010000D0000117
     508       0       0       2       1                               0D0000118
     110      72       0       0       0       0       0       000010000D0000119
     110       0       0       1       0                               0D0000120
     110      73       0       0       0       0       0       000010000D0000121
     110       0       0       1       0                               0D0000122
     110      74       0       0       0       0       0       000010000D0000123
     110       0       0       1       0                               0D0000124
     110      75       0       0       0       0       0       000010000D0000125
     110       0       0       1       0                               0D0000126
     510      76       0       0       0       0       0       000010000D0000127
     510       0       0       1       1                               0D0000128
     190      77       0       0       0       0       0       000010000D0000129
     190       0       0       1       1                               0D0000130
     116      78       0       0       0       0       0       000010400D0000131
     116       0       0       1       0                               0D0000132
     123      79       0       0       0       0       0       000010200D0000133
     123       0       0       1       0                               0D0000134
     123      80       0       0       0       0       0       000010200D0000135
     123       0       0       1       0                               0D0000136
     508      81       0       0       0       0       0       000010000D0000137
     508       0       0       2       1                               0D0000138
     110      83       0       0       0       0       0       000010000D0000139
     110       0       0       1       0                               0D0000140
     110      84       0       0       0       0       0       000010000D0000141
     110       0       0       1       0                               0D0000142
     110      85       0       0       0       0       0       000010000D0000143
     110       0       0       1       0                               0D0000144
     110      86       0       0       0       0       0       000010000D0000145
     110       0       0       1       0                               0D0000146
     510      87       0       0       0       0       0       000010000D0000147
     510       0       0       1       1                               0D0000148
     190      88       0       0       0       0       0       000010000D0000149
     190       0       0       1       1                               0D0000150
     116      89       0       0       0       0       0       000010400D0000151
     116       0       0       1       0                               0D0000152
     123      90       0       0       0       0       0       000010200D0000153
     123       0       0       1       0                               0D0000154
     123      91       0       0       0       0       0       000010200D0000155
     123       0       0       1       0                               0D0000156
     508      92       0       0       0       0       0       000010000D0000157
     508       0       0       2       1                               0D0000158
     110      94       0       0       0       0       0       000010000D0000159
     110       0       0       1       0                               0D0000160
     110      95       0       0       0       0       0       000010000D0000161
     110       0       0       1       0                               0D0000162
     110      96       0       0       0       0       0       000010000D0000163
     110       0       0       1       0                               0D0000164
     110      97       0       0       0       0       0       000010000D0000165
     110       0       0       1       0                               0D0000166
     508      98       0       0       0       0       0       000010000D0000167
     508       0       0       2       1                               0D0000168
     110     100       0       0       0       0       0       000010000D0000169
     110       0       0       1       0                               0D0000170
     110     101       0       0       0       0       0       000010000D0000171
     110       0       0       1       0                               0D0000172
     110     102       0       0       0       0       0       000010000D0000173
     110       0       0       1       0                               0D0000174
     110     103       0       0       0       0       0       000010000D0000175
     110       0       0       1       0                               0D0000176
     510     104       0       0       0       0       0       000010000D0000177
     510       0       0       1       1                               0D0000178
     190     105       0       0       0       0       0       000010000D0000179
     190       0       0       1       1                               0D0000180
     116     106       0       0       0       0       0       000010400D0000181
     116       0       0       1       0                               0D0000182
     123     107       0       0       0       0       0       000010200D0000183
     123       0       0       1       0                               0D0000184
     123     108       0       0       0       0       0       000010200D0000185
     123       0       0       1       0                               0D0000186
     508     109       0       0       0       0       0       000010000D0000187
     508       0       0       2       1                               0D0000188
     110     111       0       0       0       0       0       000010000D0000189
     110       0       0       1       0                               0D0000190
     110     112       0       0       0       0       0       000010000D0000191
     110       0       0       1       0                               0D0000192
     110     113       0       0       0       0       0       000010000D0000193
     110       0       0       1       0                               0D0000194
     110     114       0       0       0       0       0       000010000D0000195
     110       0       0       1       0                               0D0000196
     510     115       0       0       0       0       0       000010000D0000197
     510       0       0       1       1                               0D0000198
     190     116       0       0       0       0       0       000010000D0000199
     190       0       0       1       1                               0D0000200
     116     117       0       0       0       0       0       000010400D0000201
     116       0       0       1       0                               0D0000202
     123     118       0       0       0       0       0       000010200D0000203
     123       0       0       1       0                               0D0000204
     123     119       0       0       0       0       0       000010200D0000205
     123       0       0       1       0                               0D0000206
     508     120       0       0       0       0       0       000010000D0000207
     508       0       0       2       1                               0D0000208
     110     122       0       0       0       0       0       000010000D0000209
     110       0       0       1       0                               0D0000210
     110     123       0       0       0       0       0       000010000D0000211
     110       0       0       1       0                               0D0000212
     110     124       0       0       0       0       0       000010000D0000213
     110       0       0       1       0                               0D0000214
     110     125       0       0       0       0       0       000010000D0000215
     110       0       0       1       0                               0D0000216
     510     126       0       0       0       0       0       000010000D0000217
     510       0       0       1       1                               0D0000218
     190     127       0       0       0       0       0       000010000D0000219
     190       0       0       1       1                               0D0000220
     116     128       0       0       0       0       0       000010400D0000221
     116       0       0       1       0                               0D0000222
     123     129       0       0       0       0       0       000010200D0000223
     123       0       0       1       0                               0D0000224
     123     130       0       0       0       0       0       000010200D0000225
     123       0       0       1       0                               0D0000226
     508     131       0       0       0       0       0       000010000D0000227
     508       0       0       2       1                               0D0000228
     110     133       0       0       0       0       0       000010000D0000229
     110       0       0       1       0                               0D0000230
     110     134       0       0       0       0       0       000010000D0000231
     110       0       0       1       0                               0D0000232
     110     135       0       0       0       0       0       000010000D0000233
     110       0       0       1       0                               0D0000234
     110     136       0       0       0       0       0       000010000D0000235
     110       0       0       1       0                               0D0000236
     510     137       0       0       0       0       0       000010000D0000237
     510       0       0       1       1                               0D0000238
     190     138       0       0       0       0       0       000010000D0000239
     190       0       0       1       1                               0D0000240
     116     139       0       0       0       0       0       000010400D0000241
     116       0       0       1       0                               0D0000242
     123     140       0       0       0       0       0       000010200D0000243
     123       0       0       1       0                               0D0000244
     123     141       0       0       0       0       0       000010200D0000245
     123       0       0       1       0                               0D0000246
     508     142       0       0       0       0       0       000010000D0000247
     508       0       0       2       1                               0D0000248
     110     144       0       0       0       0       0       000010000D0000249
     110       0       0       1       0                               0D0000250
     110     145       0       0       0       0       0       000010000D0000251
     110       0       0       1       0                               0D0000252
     110     146       0       0       0       0       0       000010000D0000253
     110       0       0       1       0                               0D0000254
     110     147       0       0       0       0       0       000010000D0000255
     110       0       0       1       0                               0D0000256
     510     148       0       0       0       0       0       000010000D0000257
     510       0       0       1       1                               0D0000258
     190     149       0       0       0       0       0       000010000D0000259
     190       0       0       1       1                               0D0000260
     116     150       0       0       0       0       0       000010400D0000261
     116       0       0       1       0                               0D0000262
     123     151       0       0       0       0       0       000010200D0000263
     123       0       0       1       0                               0D0000264
     123     152       0       0       0       0       0       000010200D0000265
     123       0       0       1       0                               0D0000266
     508     153       0       0       0       0       0       000010000D0000267
     508       0       0       2       1                               0D0000268
     110     155       0       0       0       0       0       000010000D0000269
     110       0       0       1       0                               0D0000270
     110     156       0       0       0       0       0       000010000D0000271
     110       0       0       1       0                               0D0000272
     110     157       0       0       0       0       0       000010000D0000273
     110       0       0       1       0                               0D0000274
     110     158       0       0       0       0       0       000010000D0000275
     110       0       0       1       0                               0D0000276
186,3,1,0;                                                       0000001P0000001
514,10,5,0,77,0,97,1,127,1,147,0,177,1,197,1,217,0,237,0,257,1;  0000003P0000002
510,7,1,1,15;                                                    0000005P0000003
190,9,11,13;                                                     0000007P0000004
116,0.,0.,0.,0;                                                  0000009P0000005
123,1.,0.,-0.;                                                   0000011P0000006
123,0.,0.,1.;                                                    0000013P0000007
508,4,0,17,1,0,1,0,69,0,17,2,1,1,0,71,0,17,3,1,1,0,73,0,17,4,0,  0000015P0000008
1,0,75;                                                          0000015P0000009
504,24,19,21,1,21,2,23,21,1,21,3,25,21,3,21,4,27,21,2,21,4,29,   0000017P0000010
21,1,21,5,31,21,2,21,6,33,21,5,21,6,35,21,6,21,7,37,21,4,21,7,   0000017P0000011
39,21,8,21,9,41,21,9,21,10,43,21,11,21,10,45,21,8,21,11,47,21,3, 0000017P0000012
21,12,49,21,12,21,7,51,21,5,21,12,53,21,13,21,14,55,21,14,21,15, 0000017P0000013
57,21,16,21,15,59,21,13,21,16,61,21,13,21,8,63,21,14,21,9,65,21, 0000017P0000014
16,21,11,67,21,15,21,10;                                         0000017P0000015
110,0.,0.,0.,0.,0.,0.41;                                         0000019P0000016
502,16,0.,0.,0.,0.,0.,0.41,0.,0.41,0.,0.,0.41,0.41,2.5,0.,0.,    0000021P0000017
2.5,0.,0.41,2.5,0.41,0.41,0.55,0.15,0.41,0.45,0.15,0.41,0.45,    0000021P0000018
0.25,0.41,0.55,0.25,0.41,2.5,0.41,0.,0.55,0.15,0.,0.45,0.15,0.,  0000021P0000019
0.45,0.25,0.,0.55,0.25,0.;                                       0000021P0000020
110,0.,0.,0.,0.,0.41,0.;                                         0000023P0000021
110,0.,0.41,0.,0.,0.41,0.41;                                     0000025P0000022
110,0.,0.,0.41,0.,0.41,0.41;                                     0000027P0000023
110,0.,0.,0.,2.5,0.,0.;                                          0000029P0000024
110,0.,0.,0.41,2.5,0.,0.41;                                      0000031P0000025
110,2.5,0.,0.,2.5,0.,0.41;                                       0000033P0000026
110,2.5,0.,0.41,2.5,0.41,0.41;                                   0000035P0000027
110,0.,0.41,0.41,2.5,0.41,0.41;                                  0000037P0000028
110,0.55,0.15,0.41,0.45,0.15,0.41;                               0000039P0000029
110,0.45,0.15,0.41,0.45,0.25,0.41;                               0000041P0000030
110,0.55,0.25,0.41,0.45,0.25,0.41;                               0000043P0000031
110,0.55,0.15,0.41,0.55,0.25,0.41;                               0000045P0000032
110,0.,0.41,0.,2.5,0.41,0.;                                      0000047P0000033
110,2.5,0.41,0.,2.5,0.41,0.41;                                   0000049P0000034
110,2.5,0.,0.,2.5,0.41,0.;                                       0000051P0000035
110,0.55,0.15,0.,0.45,0.15,0.;                                   0000053P0000036
110,0.45,0.15,0.,0.45,0.25,0.;                                   0000055P0000037
110,0.55,0.25,0.,0.45,0.25,0.;                                   0000057P0000038
110,0.55,0.15,0.,0.55,0.25,0.;                                   0000059P0000039
110,0.55,0.15,0.,0.55,0.15,0.41;                                 0000061P0000040
110,0.45,0.15,0.,0.45,0.15,0.41;                                 0000063P0000041
110,0.55,0.25,0.,0.55,0.25,0.41;                                 0000065P0000042
110,0.45,0.25,0.,0.45,0.25,0.41;                                 0000067P0000043
110,0.41,0.,0.,0.,0.,0.;                                         0000069P0000044
110,0.,0.,0.,0.,-0.41,0.;                                        0000071P0000045
110,0.,-0.41,0.,0.41,-0.41,0.;                                   0000073P0000046
110,0.41,-0.41,0.,0.41,0.,0.;                                    0000075P0000047
510,79,1,1,87;                                                   0000077P0000048
190,81,83,85;                                                    0000079P0000049
116,0.,0.,0.,0;                                                  0000081P0000050
123,-0.,1.,0.;                                                   0000083P0000051
123,0.,0.,1.;                                                    0000085P0000052
508,4,0,17,5,0,1,0,89,0,17,1,1,1,0,91,0,17,6,1,1,0,93,0,17,7,0,  0000087P0000053
1,0,95;                                                          0000087P0000054
110,0.,2.5,0.,0.,0.,0.;                                          0000089P0000055
110,0.,0.,0.,0.41,0.,0.;                                         0000091P0000056
110,0.41,0.,0.,0.41,2.5,0.;                                      0000093P0000057
110,0.41,2.5,0.,0.,2.5,0.;                                       0000095P0000058
510,99,2,1,107,117;                                              0000097P0000059
190,101,103,105;                                                 0000099P0000060
116,0.,0.,0.41,0;                                                0000101P0000061
123,0.,0.,1.;                                                    0000103P0000062
123,1.,0.,-0.;                                                   0000105P0000063
508,4,0,17,4,0,1,0,109,0,17,6,1,1,0,111,0,17,8,1,1,0,113,0,17,9, 0000107P0000064
0,1,0,115;                                                       0000107P0000065
110,0.,0.41,0.,0.,0.,0.;                                         0000109P0000066
110,0.,0.,0.,2.5,0.,0.;                                          0000111P0000067
110,2.5,0.,0.,2.5,0.41,0.;                                       0000113P0000068
110,2.5,0.41,0.,0.,0.41,0.;                                      0000115P0000069
508,4,0,17,10,1,1,0,119,0,17,11,1,1,0,121,0,17,12,0,1,0,123,0,   0000117P0000070
17,13,0,1,0,125;                                                 0000117P0000071
110,0.55,0.15,0.,0.45,0.15,0.;                                   0000119P0000072
110,0.45,0.15,0.,0.45,0.25,0.;                                   0000121P0000073
110,0.45,0.25,0.,0.55,0.25,0.;                                   0000123P0000074
110,0.55,0.25,0.,0.55,0.15,0.;                                   0000125P0000075
510,129,1,1,137;                                                 0000127P0000076
190,131,133,135;                                                 0000129P0000077
116,0.,0.41,0.,0;                                                0000131P0000078
123,-0.,1.,0.;                                                   0000133P0000079
123,0.,0.,1.;                                                    0000135P0000080
508,4,0,17,14,0,1,0,139,0,17,3,1,1,0,141,0,17,9,1,1,0,143,0,17,  0000137P0000081
15,0,1,0,145;                                                    0000137P0000082
110,0.,2.5,0.,0.,0.,0.;                                          0000139P0000083
110,0.,0.,0.,0.41,0.,0.;                                         0000141P0000084
110,0.41,0.,0.,0.41,2.5,0.;                                      0000143P0000085
110,0.41,2.5,0.,0.,2.5,0.;                                       0000145P0000086
510,149,2,1,157,167;                                             0000147P0000087
190,151,153,155;                                                 0000149P0000088
116,0.,0.,0.,0;                                                  0000151P0000089
123,0.,0.,1.;                                                    0000153P0000090
123,1.,0.,-0.;                                                   0000155P0000091
508,4,0,17,2,0,1,0,159,0,17,5,1,1,0,161,0,17,16,1,1,0,163,0,17,  0000157P0000092
14,0,1,0,165;                                                    0000157P0000093
110,0.,0.41,0.,0.,0.,0.;                                         0000159P0000094
110,0.,0.,0.,2.5,0.,0.;                                          0000161P0000095
110,2.5,0.,0.,2.5,0.41,0.;                                       0000163P0000096
110,2.5,0.41,0.,0.,0.41,0.;                                      0000165P0000097
508,4,0,17,17,1,1,0,169,0,17,18,1,1,0,171,0,17,19,0,1,0,173,0,   0000167P0000098
17,20,0,1,0,175;                                                 0000167P0000099
110,0.55,0.15,0.,0.45,0.15,0.;                                   0000169P0000100
110,0.45,0.15,0.,0.45,0.25,0.;                                   0000171P0000101
110,0.45,0.25,0.,0.55,0.25,0.;                                   0000173P0000102
110,0.55,0.25,0.,0.55,0.15,0.;                                   0000175P0000103
510,179,1,1,187;                                                 0000177P0000104
190,181,183,185;                                                 0000179P0000105
116,2.5,0.,0.,0;                                                 0000181P0000106
123,1.,0.,-0.;                                                   0000183P0000107
123,0.,0.,1.;                                                    0000185P0000108
508,4,0,17,7,0,1,0,189,0,17,16,1,1,0,191,0,17,15,1,1,0,193,0,17, 0000187P0000109
8,0,1,0,195;                                                     0000187P0000110
110,0.41,0.,0.,0.,0.,0.;                                         0000189P0000111
110,0.,0.,0.,0.,-0.41,0.;                                        0000191P0000112
110,0.,-0.41,0.,0.41,-0.41,0.;                                   0000193P0000113
110,0.41,-0.41,0.,0.41,0.,0.;                                    0000195P0000114
510,199,1,1,207;                                                 0000197P0000115
190,201,203,205;                                                 0000199P0000116
116,0.45,0.15,-1.,0;                                             0000201P0000117
123,-0.,1.,0.;                                                   0000203P0000118
123,0.,0.,1.;                                                    0000205P0000119
508,4,0,17,21,0,1,0,209,0,17,17,1,1,0,211,0,17,22,1,1,0,213,0,   0000207P0000120
17,10,0,1,0,215;                                                 0000207P0000121
110,1.41,0.1,0.,1.,0.1,0.;                                       0000209P0000122
110,1.,0.1,0.,1.,0.,0.;                                          0000211P0000123
110,1.,0.,0.,1.41,0.,0.;                                         0000213P0000124
110,1.41,0.,0.,1.41,0.1,0.;                                      0000215P0000125
510,219,1,1,227;                                                 0000217P0000126
190,221,223,225;                                                 0000219P0000127
116,0.55,0.15,-1.,0;                                             0000221P0000128
123,1.,0.,-0.;                                                   0000223P0000129
123,0.,0.,1.;                                                    0000225P0000130
508,4,0,17,21,0,1,0,229,0,17,20,1,1,0,231,0,17,23,1,1,0,233,0,   0000227P0000131
17,13,0,1,0,235;                                                 0000227P0000132
110,1.41,0.,0.,1.,0.,0.;                                         0000229P0000133
110,1.,0.,0.,1.,-1.E-01,0.;                                      0000231P0000134
110,1.,-0.1,0.,1.41,-0.1,0.;                                     0000233P0000135
110,1.41,-1.E-01,0.,1.41,0.,0.;                                  0000235P0000136
510,239,1,1,247;                                                 0000237P0000137
190,241,243,245;                                                 0000239P0000138
116,0.45,0.25,-1.,0;                                             0000241P0000139
123,-0.,1.,0.;                                                   0000243P0000140
123,0.,0.,1.;                                                    0000245P0000141
508,4,0,17,23,0,1,0,249,0,17,19,1,1,0,251,0,17,24,1,1,0,253,0,   0000247P0000142
17,12,0,1,0,255;                                                 0000247P0000143
110,1.41,0.1,0.,1.,0.1,0.;                                       0000249P0000144
110,1.,0.1,0.,1.,0.,0.;                                          0000251P0000145
110,1.,0.,0.,1.41,0.,0.;                                         0000253P0000146
110,1.41,0.,0.,1.41,0.1,0.;                                      0000255P0000147
510,259,1,1,267;                                                 0000257P0000148
190,261,263,265;                                                 0000259P0000149
116,0.45,0.15,-1.,0;                                             0000261P0000150
123,1.,0.,-0.;                                                   0000263P0000151
123,0.,0.,1.;                                                    0000265P0000152
508,4,0,17,22,0,1,0,269,0,17,18,1,1,0,271,0,17,24,1,1,0,273,0,   0000267P0000153
17,11,0,1,0,275;                                                 0000267P0000154
110,1.41,0.,0.,1.,0.,0.;                                         0000269P0000155
110,1.,0.,0.,1.,-1.E-01,0.;                                      0000271P0000156
110,1.,-0.1,0.,1.41,-0.1,0.;                                     0000273P0000157
110,1.41,-1.E-01,0.,1.41,0.,0.;                                  0000275P0000158
S      1G      4D    276P    158                                        T0000001
