                                                                        S0000001
,,31HOpen CASCADE IGES processor 6.2,13HFilename.iges,                  G0000001
16HOpen CASCADE 6.2,31HOpen CASCADE IGES processor 6.2,32,308,15,308,15,G0000002
,1.,2,2HMM,1,0.01,15H20090315.221637,1.08824E-07,2.5,5Hmikko,,11,0,     G0000003
15H20090315.221637,;                                                    G0000004
     186       1       0       0       0       0       0       000000000D0000001
     186       0       0       1       0                               0D0000002
     514       2       0       0       0       0       0       000010000D0000003
     514       0       0       1       1                               0D0000004
     510       3       0       0       0       0       0       000010000D0000005
     510       0       0       1       1                               0D0000006
     190       4       0       0       0       0       0       000010000D0000007
     190       0       0       1       1                               0D0000008
     116       5       0       0       0       0       0       000010400D0000009
     116       0       0       1       0                               0D0000010
     123       6       0       0       0       0       0       000010200D0000011
     123       0       0       1       0                               0D0000012
     123       7       0       0       0       0       0       000010200D0000013
     123       0       0       1       0                               0D0000014
     508       8       0       0       0       0       0       000010000D0000015
     508       0       0       2       1                               0D0000016
     504      10       0       0       0       0       0       000010001D0000017
     504       0       0       4       1                               0D0000018
     110      14       0       0       0       0       0       000010000D0000019
     110       0       0       1       0                               0D0000020
     502      15       0       0       0       0       0       000010000D0000021
     502       0       0       3       1                               0D0000022
     110      18       0       0       0       0       0       000010000D0000023
     110       0       0       1       0                               0D0000024
     110      19       0       0       0       0       0       000010000D0000025
     110       0       0       1       0                               0D0000026
     110      20       0       0       0       0       0       000010000D0000027
     110       0       0       1       0                               0D0000028
     110      21       0       0       0       0       0       000010000D0000029
     110       0       0       1       0                               0D0000030
     110      22       0       0       0       0       0       000010000D0000031
     110       0       0       1       0                               0D0000032
     110      23       0       0       0       0       0       000010000D0000033
     110       0       0       1       0                               0D0000034
     110      24       0       0       0       0       0       000010000D0000035
     110       0       0       1       0                               0D0000036
     110      25       0       0       0       0       0       000010000D0000037
     110       0       0       1       0                               0D0000038
     100      26       0       0       0       0      41       000010000D0000039
     100       0       0       1       0                               0D0000040
     124      27       0       0       0       0       0       000000000D0000041
     124       0       0       1       0                               0D0000042
     100      28       0       0       0       0      45       000010000D0000043
     100       0       0       1       0                               0D0000044
     124      29       0       0       0       0       0       000000000D0000045
     124       0       0       1       0                               0D0000046
     110      30       0       0       0       0       0       000010000D0000047
     110       0       0       1       0                               0D0000048
     110      31       0       0       0       0       0       000010000D0000049
     110       0       0       1       0                               0D0000050
     110      32       0       0       0       0       0       000010000D0000051
     110       0       0       1       0                               0D0000052
     100      33       0       0       0       0      55       000010000D0000053
     100       0       0       1       0                               0D0000054
     124      34       0       0       0       0       0       000000000D0000055
     124       0       0       1       0                               0D0000056
     100      35       0       0       0       0      59       000010000D0000057
     100       0       0       1       0                               0D0000058
     124      36       0       0       0       0       0       000000000D0000059
     124       0       0       1       0                               0D0000060
     110      37       0       0       0       0       0       000010000D0000061
     110       0       0       1       0                               0D0000062
     110      38       0       0       0       0       0       000010000D0000063
     110       0       0       1       0                               0D0000064
     110      39       0       0       0       0       0       000010000D0000065
     110       0       0       1       0                               0D0000066
     110      40       0       0       0       0       0       000010000D0000067
     110       0       0       1       0                               0D0000068
     110      41       0       0       0       0       0       000010000D0000069
     110       0       0       1       0                               0D0000070
     510      42       0       0       0       0       0       000010000D0000071
     510       0       0       1       1                               0D0000072
     190      43       0       0       0       0       0       000010000D0000073
     190       0       0       1       1                               0D0000074
     116      44       0       0       0       0       0       000010400D0000075
     116       0       0       1       0                               0D0000076
     123      45       0       0       0       0       0       000010200D0000077
     123       0       0       1       0                               0D0000078
     123      46       0       0       0       0       0       000010200D0000079
     123       0       0       1       0                               0D0000080
     508      47       0       0       0       0       0       000010000D0000081
     508       0       0       2       1                               0D0000082
     110      49       0       0       0       0       0       000010000D0000083
     110       0       0       1       0                               0D0000084
     110      50       0       0       0       0       0       000010000D0000085
     110       0       0       1       0                               0D0000086
     110      51       0       0       0       0       0       000010000D0000087
     110       0       0       1       0                               0D0000088
     110      52       0       0       0       0       0       000010000D0000089
     110       0       0       1       0                               0D0000090
     510      53       0       0       0       0       0       000010000D0000091
     510       0       0       1       1                               0D0000092
     190      54       0       0       0       0       0       000010000D0000093
     190       0       0       1       1                               0D0000094
     116      55       0       0       0       0       0       000010400D0000095
     116       0       0       1       0                               0D0000096
     123      56       0       0       0       0       0       000010200D0000097
     123       0       0       1       0                               0D0000098
     123      57       0       0       0       0       0       000010200D0000099
     123       0       0       1       0                               0D0000100
     508      58       0       0       0       0       0       000010000D0000101
     508       0       0       2       1                               0D0000102
     110      60       0       0       0       0       0       000010000D0000103
     110       0       0       1       0                               0D0000104
     110      61       0       0       0       0       0       000010000D0000105
     110       0       0       1       0                               0D0000106
     110      62       0       0       0       0       0       000010000D0000107
     110       0       0       1       0                               0D0000108
     110      63       0       0       0       0       0       000010000D0000109
     110       0       0       1       0                               0D0000110
     508      64       0       0       0       0       0       000010000D0000111
     508       0       0       1       1                               0D0000112
     100      65       0       0       0       0     115       000010000D0000113
     100       0       0       1       0                               0D0000114
     124      66       0       0       0       0       0       000000000D0000115
     124       0       0       1       0                               0D0000116
     100      67       0       0       0       0     119       000010000D0000117
     100       0       0       1       0                               0D0000118
     124      68       0       0       0       0       0       000000000D0000119
     124       0       0       1       0                               0D0000120
     510      69       0       0       0       0       0       000010000D0000121
     510       0       0       1       1                               0D0000122
     190      70       0       0       0       0       0       000010000D0000123
     190       0       0       1       1                               0D0000124
     116      71       0       0       0       0       0       000010400D0000125
     116       0       0       1       0                               0D0000126
     123      72       0       0       0       0       0       000010200D0000127
     123       0       0       1       0                               0D0000128
     123      73       0       0       0       0       0       000010200D0000129
     123       0       0       1       0                               0D0000130
     508      74       0       0       0       0       0       000010000D0000131
     508       0       0       2       1                               0D0000132
     110      76       0       0       0       0       0       000010000D0000133
     110       0       0       1       0                               0D0000134
     110      77       0       0       0       0       0       000010000D0000135
     110       0       0       1       0                               0D0000136
     110      78       0       0       0       0       0       000010000D0000137
     110       0       0       1       0                               0D0000138
     110      79       0       0       0       0       0       000010000D0000139
     110       0       0       1       0                               0D0000140
     510      80       0       0       0       0       0       000010000D0000141
     510       0       0       1       1                               0D0000142
     190      81       0       0       0       0       0       000010000D0000143
     190       0       0       1       1                               0D0000144
     116      82       0       0       0       0       0       000010400D0000145
     116       0       0       1       0                               0D0000146
     123      83       0       0       0       0       0       000010200D0000147
     123       0       0       1       0                               0D0000148
     123      84       0       0       0       0       0       000010200D0000149
     123       0       0       1       0                               0D0000150
     508      85       0       0       0       0       0       000010000D0000151
     508       0       0       2       1                               0D0000152
     110      87       0       0       0       0       0       000010000D0000153
     110       0       0       1       0                               0D0000154
     110      88       0       0       0       0       0       000010000D0000155
     110       0       0       1       0                               0D0000156
     110      89       0       0       0       0       0       000010000D0000157
     110       0       0       1       0                               0D0000158
     110      90       0       0       0       0       0       000010000D0000159
     110       0       0       1       0                               0D0000160
     508      91       0       0       0       0       0       000010000D0000161
     508       0       0       1       1                               0D0000162
     100      92       0       0       0       0     165       000010000D0000163
     100       0       0       1       0                               0D0000164
     124      93       0       0       0       0       0       000000000D0000165
     124       0       0       1       0                               0D0000166
     100      94       0       0       0       0     169       000010000D0000167
     100       0       0       1       0                               0D0000168
     124      95       0       0       0       0       0       000000000D0000169
     124       0       0       1       0                               0D0000170
     510      96       0       0       0       0       0       000010000D0000171
     510       0       0       1       1                               0D0000172
     190      97       0       0       0       0       0       000010000D0000173
     190       0       0       1       1                               0D0000174
     116      98       0       0       0       0       0       000010400D0000175
     116       0       0       1       0                               0D0000176
     123      99       0       0       0       0       0       000010200D0000177
     123       0       0       1       0                               0D0000178
     123     100       0       0       0       0       0       000010200D0000179
     123       0       0       1       0                               0D0000180
     508     101       0       0       0       0       0       000010000D0000181
     508       0       0       2       1                               0D0000182
     110     103       0       0       0       0       0       000010000D0000183
     110       0       0       1       0                               0D0000184
     110     104       0       0       0       0       0       000010000D0000185
     110       0       0       1       0                               0D0000186
     110     105       0       0       0       0       0       000010000D0000187
     110       0       0       1       0                               0D0000188
     110     106       0       0       0       0       0       000010000D0000189
     110       0       0       1       0                               0D0000190
     510     107       0       0       0       0       0       000010000D0000191
     510       0       0       1       1                               0D0000192
     192     108       0       0       0       0       0       000010000D0000193
     192       0       0       1       1                               0D0000194
     116     109       0       0       0       0       0       000010400D0000195
     116       0       0       1       0                               0D0000196
     123     110       0       0       0       0       0       000010200D0000197
     123       0       0       1       0                               0D0000198
     123     111       0       0       0       0       0       000010200D0000199
     123       0       0       1       0                               0D0000200
     508     112       0       0       0       0       0       000010000D0000201
     508       0       0       2       1                               0D0000202
     110     114       0       0       0       0       0       000010000D0000203
     110       0       0       1       0                               0D0000204
     110     115       0       0       0       0       0       000010000D0000205
     110       0       0       1       0                               0D0000206
     110     116       0       0       0       0       0       000010000D0000207
     110       0       0       1       0                               0D0000208
     110     117       0       0       0       0       0       000010000D0000209
     110       0       0       1       0                               0D0000210
     110     118       0       0       0       0       0       000010000D0000211
     110       0       0       1       0                               0D0000212
     110     119       0       0       0       0       0       000010000D0000213
     110       0       0       1       0                               0D0000214
186,3,1,0;                                                       0000001P0000001
514,7,5,0,71,0,91,1,121,1,141,0,171,1,191,0;                     0000003P0000002
510,7,1,1,15;                                                    0000005P0000003
190,9,11,13;                                                     0000007P0000004
116,0.,0.,0.,0;                                                  0000009P0000005
123,1.,0.,-0.;                                                   0000011P0000006
123,0.,0.,1.;                                                    0000013P0000007
508,4,0,17,1,0,1,0,63,0,17,2,1,1,0,65,0,17,3,1,1,0,67,0,17,4,0,  0000015P0000008
1,0,69;                                                          0000015P0000009
504,17,19,21,1,21,2,23,21,1,21,3,25,21,3,21,4,27,21,2,21,4,29,   0000017P0000010
21,1,21,5,31,21,2,21,6,33,21,5,21,6,35,21,6,21,7,37,21,4,21,7,   0000017P0000011
39,21,8,21,9,43,21,9,21,8,47,21,3,21,10,49,21,10,21,7,51,21,5,   0000017P0000012
21,10,53,21,11,21,12,57,21,12,21,11,61,21,11,21,8;               0000017P0000013
110,0.,0.,0.,0.,0.,0.41;                                         0000019P0000014
502,12,0.,0.,0.,0.,0.,0.41,0.,0.41,0.,0.,0.41,0.41,2.5,0.,0.,    0000021P0000015
2.5,0.,0.41,2.5,0.41,0.41,0.55,0.2,0.41,0.5,0.15,0.41,2.5,0.41,  0000021P0000016
0.,0.55,0.2,0.,0.5,0.15,0.;                                      0000021P0000017
110,0.,0.,0.,0.,0.41,0.;                                         0000023P0000018
110,0.,0.41,0.,0.,0.41,0.41;                                     0000025P0000019
110,0.,0.,0.41,0.,0.41,0.41;                                     0000027P0000020
110,0.,0.,0.,2.5,0.,0.;                                          0000029P0000021
110,0.,0.,0.41,2.5,0.,0.41;                                      0000031P0000022
110,2.5,0.,0.,2.5,0.,0.41;                                       0000033P0000023
110,2.5,0.,0.41,2.5,0.41,0.41;                                   0000035P0000024
110,0.,0.41,0.41,2.5,0.41,0.41;                                  0000037P0000025
100,0.,0.,0.,0.,5.E-02,5.E-02,0.;                                0000039P0000026
124,0.,1.,0.,0.5,-1.,0.,0.,0.2,0.,0.,1.,0.41;                    0000041P0000027
100,0.,0.,0.,5.E-02,0.,0.,5.E-02;                                0000043P0000028
124,0.,1.,0.,0.5,-1.,0.,0.,0.2,0.,0.,1.,0.41;                    0000045P0000029
110,0.,0.41,0.,2.5,0.41,0.;                                      0000047P0000030
110,2.5,0.41,0.,2.5,0.41,0.41;                                   0000049P0000031
110,2.5,0.,0.,2.5,0.41,0.;                                       0000051P0000032
100,0.,0.,0.,0.,5.E-02,5.E-02,0.;                                0000053P0000033
124,0.,1.,0.,0.5,-1.,0.,0.,0.2,0.,0.,1.,0.;                      0000055P0000034
100,0.,0.,0.,5.E-02,0.,0.,5.E-02;                                0000057P0000035
124,0.,1.,0.,0.5,-1.,0.,0.,0.2,0.,0.,1.,0.;                      0000059P0000036
110,0.55,0.2,0.,0.55,0.2,0.41;                                   0000061P0000037
110,0.41,0.,0.,0.,0.,0.;                                         0000063P0000038
110,0.,0.,0.,0.,-0.41,0.;                                        0000065P0000039
110,0.,-0.41,0.,0.41,-0.41,0.;                                   0000067P0000040
110,0.41,-0.41,0.,0.41,0.,0.;                                    0000069P0000041
510,73,1,1,81;                                                   0000071P0000042
190,75,77,79;                                                    0000073P0000043
116,0.,0.,0.,0;                                                  0000075P0000044
123,-0.,1.,0.;                                                   0000077P0000045
123,0.,0.,1.;                                                    0000079P0000046
508,4,0,17,5,0,1,0,83,0,17,1,1,1,0,85,0,17,6,1,1,0,87,0,17,7,0,  0000081P0000047
1,0,89;                                                          0000081P0000048
110,0.,2.5,0.,0.,0.,0.;                                          0000083P0000049
110,0.,0.,0.,0.41,0.,0.;                                         0000085P0000050
110,0.41,0.,0.,0.41,2.5,0.;                                      0000087P0000051
110,0.41,2.5,0.,0.,2.5,0.;                                       0000089P0000052
510,93,2,1,101,111;                                              0000091P0000053
190,95,97,99;                                                    0000093P0000054
116,0.,0.,0.41,0;                                                0000095P0000055
123,0.,0.,1.;                                                    0000097P0000056
123,1.,0.,-0.;                                                   0000099P0000057
508,4,0,17,4,0,1,0,103,0,17,6,1,1,0,105,0,17,8,1,1,0,107,0,17,9, 0000101P0000058
0,1,0,109;                                                       0000101P0000059
110,0.,0.41,0.,0.,0.,0.;                                         0000103P0000060
110,0.,0.,0.,2.5,0.,0.;                                          0000105P0000061
110,2.5,0.,0.,2.5,0.41,0.;                                       0000107P0000062
110,2.5,0.41,0.,0.,0.41,0.;                                      0000109P0000063
508,2,0,17,10,0,1,0,113,0,17,11,0,1,0,117;                       0000111P0000064
100,0.,0.,0.,5.E-02,0.,0.,-5.E-02;                               0000113P0000065
124,0.,-1.,0.,0.5,-1.,0.,0.,0.2,0.,0.,-1.,0.;                    0000115P0000066
100,0.,0.,0.,0.,-5.E-02,5.E-02,0.;                               0000117P0000067
124,0.,-1.,0.,0.5,-1.,0.,0.,0.2,0.,0.,-1.,0.;                    0000119P0000068
510,123,1,1,131;                                                 0000121P0000069
190,125,127,129;                                                 0000123P0000070
116,0.,0.41,0.,0;                                                0000125P0000071
123,-0.,1.,0.;                                                   0000127P0000072
123,0.,0.,1.;                                                    0000129P0000073
508,4,0,17,12,0,1,0,133,0,17,3,1,1,0,135,0,17,9,1,1,0,137,0,17,  0000131P0000074
13,0,1,0,139;                                                    0000131P0000075
110,0.,2.5,0.,0.,0.,0.;                                          0000133P0000076
110,0.,0.,0.,0.41,0.,0.;                                         0000135P0000077
110,0.41,0.,0.,0.41,2.5,0.;                                      0000137P0000078
110,0.41,2.5,0.,0.,2.5,0.;                                       0000139P0000079
510,143,2,1,151,161;                                             0000141P0000080
190,145,147,149;                                                 0000143P0000081
116,0.,0.,0.,0;                                                  0000145P0000082
123,0.,0.,1.;                                                    0000147P0000083
123,1.,0.,-0.;                                                   0000149P0000084
508,4,0,17,2,0,1,0,153,0,17,5,1,1,0,155,0,17,14,1,1,0,157,0,17,  0000151P0000085
12,0,1,0,159;                                                    0000151P0000086
110,0.,0.41,0.,0.,0.,0.;                                         0000153P0000087
110,0.,0.,0.,2.5,0.,0.;                                          0000155P0000088
110,2.5,0.,0.,2.5,0.41,0.;                                       0000157P0000089
110,2.5,0.41,0.,0.,0.41,0.;                                      0000159P0000090
508,2,0,17,15,0,1,0,163,0,17,16,0,1,0,167;                       0000161P0000091
100,0.,0.,0.,5.E-02,0.,0.,-5.E-02;                               0000163P0000092
124,0.,-1.,0.,0.5,-1.,0.,0.,0.2,0.,0.,-1.,0.;                    0000165P0000093
100,0.,0.,0.,0.,-5.E-02,5.E-02,0.;                               0000167P0000094
124,0.,-1.,0.,0.5,-1.,0.,0.,0.2,0.,0.,-1.,0.;                    0000169P0000095
510,173,1,1,181;                                                 0000171P0000096
190,175,177,179;                                                 0000173P0000097
116,2.5,0.,0.,0;                                                 0000175P0000098
123,1.,0.,-0.;                                                   0000177P0000099
123,0.,0.,1.;                                                    0000179P0000100
508,4,0,17,7,0,1,0,183,0,17,14,1,1,0,185,0,17,13,1,1,0,187,0,17, 0000181P0000101
8,0,1,0,189;                                                     0000181P0000102
110,0.41,0.,0.,0.,0.,0.;                                         0000183P0000103
110,0.,0.,0.,0.,-0.41,0.;                                        0000185P0000104
110,0.,-0.41,0.,0.41,-0.41,0.;                                   0000187P0000105
110,0.41,-0.41,0.,0.41,0.,0.;                                    0000189P0000106
510,193,1,1,201;                                                 0000191P0000107
192,195,197,5.E-02,199;                                          0000193P0000108
116,0.5,0.2,-1.,0;                                               0000195P0000109
123,0.,0.,1.;                                                    0000197P0000110
123,1.,0.,-0.;                                                   0000199P0000111
508,6,0,17,17,0,1,0,203,0,17,15,1,1,0,205,0,17,16,1,1,0,207,0,   0000201P0000112
17,17,1,1,0,209,0,17,11,0,1,0,211,0,17,10,0,1,0,213;             0000201P0000113
110,0.,1.41,0.,0.,1.,0.;                                         0000203P0000114
110,0.,1.,0.,270.,1.,0.;                                         0000205P0000115
110,270.,1.,0.,360.,1.,0.;                                       0000207P0000116
110,360.,1.,0.,360.,1.41,0.;                                     0000209P0000117
110,360.,1.41,0.,270.,1.41,0.;                                   0000211P0000118
110,270.,1.41,0.,0.,1.41,0.;                                     0000213P0000119
S      1G      4D    214P    119                                        T0000001
