DBRep_DrawableShape

CASCADE Topology V1, (c) Matra-Datavision
Locations 0
Curve2ds 34
1 0 0 0 1 
1 0 0 1 0 
1 0 0 1 0 
1 0 1 1 0 
1 1 0 0 1 
1 0 0 1 0 
1 0 0 1 0 
1 0 0 1 0 
1 0 0 0 -1 
1 0 0 0 1 
1 0 0 0 1 
1 0 1 1 0 
1 0 0 0 -1 
1 1 0 0 1 
3 0.66666666666666663 -0.66666666666666663 0.70710678118654757 -0.70710678118654757 0.70710678118654757 0.70710678118654757 0.2763853991962833 0.25
7 0 0  8 16 3  -1.1059709331040469e-16 2.2984839309177807  0.34674192927268221 2.2710715744679062  0.69348385754570463 2.2316487977435164  1.0402257858149375 2.18524749444027  1.386967714093561 2.139927398997485  1.7337096423595764 2.1050636908434437  2.0804515706365025 2.0868445517626957  2.4271934989087764 2.0864200920567879  3.1206773554541414 2.1157955525734704  3.467419283718931 2.1455957044180285  3.8141612120119985 2.1878066639004747  4.1609031402403982 2.2359077770186229  4.5076450685575304 2.2803609025257154  4.8543869968107973 2.3127397676182717  5.2011289250902344 2.3289343237271609  5.5478708543629152 2.3289343237680247 
 0.73531445281666841 9 3.5092498799981273 7 6.2831853071795862 9
3 0.66666666666666663 -0.66666666666666663 0.70710678118654757 -0.70710678118654757 0.70710678118654757 0.70710678118654757 0.2763853991962833 0.25
7 0 0  8 9 2  5.5478708543629214 2.3289343237680247  5.6397851617150012 2.3289343237571924  5.7316994680576769 2.3277964556304624  5.8236137744358931 2.325520719413841  5.9155280807264088 2.3221276226978862  6.007442387129112 2.3176581811582642  6.0993566934649905 2.3121729932862891  6.1912709998275028 2.3057503949294795  6.2831853071795827 2.2984839309177776 
 0 9 0.73531445281666763 9
1 1 0 0 -1 
1 1 0 0 1 
1 0 -1 1 0 
1 0 1 1 0 
1 1 0 0 -1 
1 0 0 0 1 
1 1 0 0 1 
1 0 1 1 0 
3 0.33333333333333331 -0.33333333333333331 0.70710678118654757 -0.70710678118654757 0.70710678118654757 0.70710678118654757 0.2763853991962833 0.25
7 0 0  8 16 3  1.1144751161462662e-16 1.1929423341326457  0.34674192927268244 1.1655299776827732  0.69348385754489628 1.126107200961757  1.0402257858163444 1.0797058976480236  1.3869677140922723 1.0343858022290373  1.7337096423611715 0.99952209405022296  2.0804515706358169 0.98130295498018105  2.4271934989087764 0.98087849527165449  3.1206773554541414 1.0102539557883372  3.4674192837218616 1.0400541076319487  3.8141612120075363 1.0822650671177778  4.1609031402432777 1.1303661802301659  4.5076450685534457 1.1748193057411349  4.8543869968117006 1.2071981708333697  5.2011289250902353 1.2233927269420273  5.5478708543629169 1.2233927269828913 
 0.73531445281666841 9 3.5092498799981273 7 6.2831853071795862 9
3 0.33333333333333331 -0.33333333333333331 0.70710678118654757 -0.70710678118654757 0.70710678118654757 0.70710678118654757 0.2763853991962833 0.25
7 0 0  8 9 2  5.5478708543629214 1.2233927269828913  5.6397851617150012 1.223392726972059  5.7316994680613149 1.2222548588469972  5.8236137744286172 1.2199791226234136  5.9155280807264088 1.2165860259212535  6.007442387129112 1.2121165843668624  6.0993566934686285 1.2066313965027515  6.1912709998275028 1.2002087981443461  6.2831853071795827 1.1929423341326462 
 0 9 0.73531445281666807 9
1 0 -1 1 0 
1 0 0 1 0 
1 6.2831853071795862 -0 0 1 
1 0 -0 0 1 
Curves 17
1 0 0 0 1 0 -0 
1 1 0 0 0 0 1 
1 0 0 1 1 0 -0 
1 0 0 0 0 0 1 
1 0 0 0 -0 1 0 
1 0 1 0 1 0 -0 
1 1 0 0 -0 1 0 
3 1 0.66666666666666663 0.66666666666666663 1 0 -0 0 0.70710678118654757 0.70710678118654757 0 -0.70710678118654757 0.70710678118654757 0.2763853991962833 0.25
3 1 0.66666666666666663 0.66666666666666663 1 0 -0 0 0.70710678118654757 0.70710678118654757 0 -0.70710678118654757 0.70710678118654757 0.2763853991962833 0.25
1 1 0 1 0 1 0 
1 1 1 0 0 0 1 
1 0 0 1 -0 1 0 
1 0 1 1 1 0 -0 
3 0 0.33333333333333331 0.33333333333333331 1 0 -0 0 0.70710678118654757 0.70710678118654757 0 -0.70710678118654757 0.70710678118654757 0.2763853991962833 0.25
3 0 0.33333333333333331 0.33333333333333331 1 0 -0 0 0.70710678118654757 0.70710678118654757 0 -0.70710678118654757 0.70710678118654757 0.2763853991962833 0.25
1 0 1 0 0 0 1 
1 -1.0790569415042095 5.9642896337513298e-17 0.23717082451262844 0.90453403373329089 0.30151134457776363 0.30151134457776363 
Polygon3D 0
PolygonOnTriangulations 34
2 1 2 
p 0.0058216787146308 1 0 1 
2 1 4 
p 0.0058216787146308 1 0 1 
2 2 3 
p 0.0058216787146308 1 0 1 
2 45 46 
p 0.0058216787146308 1 0 1 
2 4 3 
p 0.0058216787146308 1 0 1 
2 1 4 
p 0.0058216787146308 1 0 1 
2 1 4 
p 0.0058216787146308 1 0 1 
2 45 46 
p 0.0058216787146308 1 0 1 
2 1 2 
p 0.0058216787146308 1 0 1 
2 45 48 
p 0.0058216787146308 1 0 1 
2 2 3 
p 0.0058216787146308 1 0 1 
2 1 2 
p 0.0058216787146308 1 0 1 
2 4 3 
p 0.0058216787146308 1 0 1 
2 45 48 
p 0.0058216787146308 1 0 1 
39 2 4 5 6 7 8 9 10 11 12 13 14 15 16 17 18 19 20 21 22 23 24 25 26 27 28 29 30 31 32 33 34 35 36 37 38 39 40 3 
p 0.0058216787146308 1 0.735314452816668 0.883947280458296 1.03258010809992 1.18121293574155 1.32984576338318 1.47847859102481 1.62711141866643 1.77574424630806 1.92437707394969 2.07300990159131 2.22164272923294 2.37027555687457 2.5189083845162 2.66754121215782 2.81617403979945 2.96480686744108 3.11343969508271 3.26207252272433 3.41070535036596 3.55933817800759 3.70797100564922 3.85660383329084 4.00523666093247 4.1538694885741 4.30250231621572 4.45113514385735 4.59976797149898 4.74840079914061 4.89703362678223 5.04566645442386 5.19429928206549 5.34293210970712 5.49156493734874 5.64019776499037 5.788830592632 5.93746342027362 6.08609624791525 6.18464077754742 6.28318530717959 
39 1 3 4 5 6 7 8 9 10 11 12 13 14 15 16 17 18 19 20 21 22 23 24 25 26 27 28 29 30 31 32 33 34 35 36 37 38 39 2 
p 0.0058216787146308 1 0.735314452816668 0.883947280458296 1.03258010809992 1.18121293574155 1.32984576338318 1.47847859102481 1.62711141866643 1.77574424630806 1.92437707394969 2.07300990159131 2.22164272923294 2.37027555687457 2.5189083845162 2.66754121215782 2.81617403979945 2.96480686744108 3.11343969508271 3.26207252272433 3.41070535036596 3.55933817800759 3.70797100564922 3.85660383329084 4.00523666093247 4.1538694885741 4.30250231621572 4.45113514385735 4.59976797149898 4.74840079914061 4.89703362678223 5.04566645442386 5.19429928206549 5.34293210970712 5.49156493734874 5.64019776499037 5.788830592632 5.93746342027362 6.08609624791525 6.18464077754742 6.28318530717959 
7 3 42 43 44 45 46 41 
p 0.0058216787146308 1 0 0.122552408802778 0.245104817605556 0.367657226408334 0.521216527091153 0.62826548995391 0.735314452816668 
7 2 40 41 42 43 44 1 
p 0.0058216787146308 1 0 0.122552408802778 0.245104817605556 0.367657226408334 0.521216527091153 0.62826548995391 0.735314452816668 
2 46 47 
p 0.0058216787146308 1 0 1 
2 4 3 
p 0.0058216787146308 1 0 1 
2 48 47 
p 0.0058216787146308 1 0 1 
2 2 3 
p 0.0058216787146308 1 0 1 
2 1 2 
p 0.0058216787146308 1 0 1 
2 46 47 
p 0.0058216787146308 1 0 1 
2 2 3 
p 0.0058216787146308 1 0 1 
2 4 3 
p 0.0058216787146308 1 0 1 
39 1 54 55 56 57 58 59 60 61 62 63 64 65 66 67 68 69 70 71 72 73 74 75 76 77 78 79 80 81 82 83 84 85 86 87 88 89 90 48 
p 0.0058216787146308 1 0.735314452816668 0.883947280458296 1.03258010809992 1.18121293574155 1.32984576338318 1.47847859102481 1.62711141866643 1.77574424630806 1.92437707394969 2.07300990159131 2.22164272923294 2.37027555687457 2.5189083845162 2.66754121215782 2.81617403979945 2.96480686744108 3.11343969508271 3.26207252272433 3.41070535036596 3.55933817800759 3.70797100564922 3.85660383329084 4.00523666093247 4.1538694885741 4.30250231621572 4.45113514385735 4.59976797149898 4.74840079914061 4.89703362678223 5.04566645442386 5.19429928206549 5.34293210970712 5.49156493734874 5.64019776499037 5.788830592632 5.93746342027362 6.08609624791525 6.18464077754742 6.28318530717959 
39 1 3 4 5 6 7 8 9 10 11 12 13 14 15 16 17 18 19 20 21 22 23 24 25 26 27 28 29 30 31 32 33 34 35 36 37 38 39 2 
p 0.0058216787146308 1 0.735314452816668 0.883947280458296 1.03258010809992 1.18121293574155 1.32984576338318 1.47847859102481 1.62711141866643 1.77574424630806 1.92437707394969 2.07300990159131 2.22164272923294 2.37027555687457 2.5189083845162 2.66754121215782 2.81617403979945 2.96480686744108 3.11343969508271 3.26207252272433 3.41070535036596 3.55933817800759 3.70797100564922 3.85660383329084 4.00523666093247 4.1538694885741 4.30250231621572 4.45113514385735 4.59976797149898 4.74840079914061 4.89703362678223 5.04566645442386 5.19429928206549 5.34293210970712 5.49156493734874 5.64019776499037 5.788830592632 5.93746342027362 6.08609624791525 6.18464077754742 6.28318530717959 
7 48 49 50 51 52 53 47 
p 0.0058216787146308 1 0 0.122552408802778 0.245104817605556 0.367657226408334 0.52121652709115 0.628265489953909 0.735314452816668 
7 2 40 41 42 43 44 1 
p 0.0058216787146308 1 0 0.122552408802778 0.245104817605556 0.367657226408334 0.52121652709115 0.628265489953909 0.735314452816668 
2 48 47 
p 0.0058216787146308 1 0 1 
2 1 4 
p 0.0058216787146308 1 0 1 
2 47 41 
p 0.0058216787146308 1 1.19294233413265 2.29848393091778 
2 1 2 
p 0.0058216787146308 1 1.19294233413265 2.29848393091778 
Surfaces 7
1 0 0 0 -0 1 0 0 0 1 1 0 -0 
1 0 0 0 0 0 1 1 0 -0 -0 1 0 
1 1 0 0 1 0 -0 0 0 1 0 -1 0 
1 0 0 1 0 0 1 1 0 -0 -0 1 0 
1 0 0 0 1 0 -0 0 0 1 0 -1 0 
1 0 1 0 -0 1 0 0 0 1 1 0 -0 
2 -1 0 0 0.90453403373329089 0.30151134457776363 0.30151134457776363 -0.31622776601683794 5.04831636563563e-18 0.94868329805051377 0.28603877677367767 -0.95346258924559235 0.095346258924559238 0.25
Triangulations 7
4 2 1 0
0 0 0 1 0 0 1 0 1 0 0 1 0 0 0 1 1 1 1 0 4 2 1 3 2 4 
4 2 1 0
0 0 0 0 1 0 1 1 0 1 0 0 0 0 0 1 1 1 1 0 4 2 1 3 2 4 
48 48 1 1.11022302462515e-16
1 0.693018980501403 0.930189805014032 1 0.86210065665931 0.862100656659309 1 0.653899909982883 0.927284320498832 1 0.615062360199784 0.91863193601617 1 0.577362740955137 0.904423445963012 1 0.541632369457983 0.884972162848406 1 0.508659138883536 0.860707008415199 1 0.479170144480059 0.832163055453635 1 0.453815650335524 0.799969728870023 1 0.433154750354089 0.764836926189629 1 0.417643039633345 0.72753936355164 1 0.407622568101703 0.68889949238388 1 0.403314297949071 0.649769363463002 1 0.404813231172574 0.611011838277148 1 0.412086314680193 0.573481562000791 1 0.42497316914705 0.538006117648126 1 0.443189625552255 0.505367776976261 1 0.466333991411882 0.476286250550411 1 0.493895908530891 0.451402817350773 1 0.52526760695101 0.431266183880313 1 0.559757306932921 0.416320384595386 1 0.596604473444597 0.406894990467725 1 0.634996586777901 0.403197841589548 1 0.674087059483282 0.405310464075662 1 0.71301390453486 0.413186272324831 1 0.750918743072756 0.426651596282456 1 0.786965732581482 0.445409511052327 1 0.820359998117653 0.469046384410398 1 0.850365160158618 0.497040997840828 1 0.876319572564059 0.528776039965638 1 0.897650912586015 0.56355171892548 1 0.913888801201901 0.600601193543847 1 0.924675175478579 0.639107483000953 1 0.929772184245693 0.678221482140742 1 0.929067432970152 0.717080685154114 1 0.922576462176639 0.754828204760991 1 0.910442404762306 0.790631667497752 1 0.892932829762231 0.823701568448628 1 0.878544687246313 0.843760297195854 1 0.839024651400252 0.882245092549242 1 0.81336322387873 0.899155786396732 1 0.785501303322731 0.91257907264393 1 0.748126381093969 0.924173163806966 1 0.72088302993528 0.928681327244747 1 0 0 1 0 1 1 1 1 1 1 0 0.930189805014032 -0.693018980501403 0.862100656659309 -0.86210065665931 0.927284320498832 -0.653899909982883 0.91863193601617 -0.615062360199784 0.904423445963012 -0.577362740955137 0.884972162848406 -0.541632369457983 0.860707008415199 -0.508659138883536 0.832163055453635 -0.479170144480059 0.799969728870023 -0.453815650335524 0.764836926189629 -0.433154750354089 0.72753936355164 -0.417643039633345 0.68889949238388 -0.407622568101703 0.649769363463002 -0.403314297949071 0.611011838277148 -0.404813231172574 0.573481562000791 -0.412086314680193 0.538006117648126 -0.42497316914705 0.505367776976261 -0.443189625552255 0.476286250550411 -0.466333991411882 0.451402817350773 -0.493895908530891 0.431266183880313 -0.52526760695101 0.416320384595386 -0.559757306932921 0.406894990467725 -0.596604473444597 0.403197841589548 -0.634996586777901 0.405310464075662 -0.674087059483282 0.413186272324831 -0.71301390453486 0.426651596282456 -0.750918743072756 0.445409511052327 -0.786965732581482 0.469046384410398 -0.820359998117653 0.497040997840828 -0.850365160158618 0.528776039965638 -0.876319572564059 0.56355171892548 -0.897650912586015 0.600601193543847 -0.913888801201901 0.639107483000953 -0.924675175478579 0.678221482140742 -0.929772184245693 0.717080685154114 -0.929067432970152 0.754828204760991 -0.922576462176639 0.790631667497752 -0.910442404762306 0.823701568448628 -0.892932829762231 0.843760297195854 -0.878544687246313 0.882245092549242 -0.839024651400252 0.899155786396732 -0.81336322387873 0.91257907264393 -0.785501303322731 0.924173163806966 -0.748126381093969 0.928681327244747 -0.72088302993528 0 0 1 0 1 -1 0 -1 47 35 34 47 36 35 47 37 36 47 38 37 47 39 38 47 2 39 15 45 16 47 34 48 28 48 29 43 42 47 30 29 48 27 48 28 18 45 19 14 45 15 31 30 48 26 48 27 32 31 48 40 2 47 25 48 26 44 43 47 46 4 3 46 5 4 46 6 5 46 7 6 17 45 18 33 32 48 46 8 7 46 9 8 46 10 9 46 11 10 46 12 11 46 13 12 1 44 47 46 14 13 46 45 14 24 48 25 47 46 3 41 40 47 16 45 17 34 33 48 3 1 47 45 20 19 23 48 24 45 21 20 45 22 21 45 48 22 42 41 47 22 48 23 
4 2 1 0
0 0 1 0 1 1 1 1 1 1 0 1 0 0 0 1 1 1 1 0 4 2 1 3 2 4 
48 48 1 1.77809156287623e-17
3.55618312575245e-17 0.35968564716807 0.596856471680698 0 0.528767323325976 0.528767323325976 0 0.320566576649549 0.593950987165499 0 0.28172902686645 0.585298602682836 0 0.244029407621804 0.571090112629678 0 0.20829903612465 0.551638829515073 0 0.175325805550202 0.527373675081866 0 0.145836811146726 0.498829722120301 0 0.12048231700219 0.46663639553669 0 0.0998214170207557 0.431503592856295 0 0.0843097063000114 0.394206030218306 0 0.0742892347683698 0.355566159050547 0 0.0699809646157379 0.316436030129668 0 0.0714798978392402 0.277678504943815 0 0.0787529813468597 0.240148228667457 0 0.0916398358137169 0.204672784314793 0 0.109856292218921 0.172034443642927 0 0.133000658078549 0.142952917217078 0 0.160562575197558 0.11806948401744 0 0.191934273617677 0.0979328505469792 0 0.226423973599587 0.0829870512620523 0 0.263271140111263 0.0735616571343921 0 0.301663253444568 0.0698645082562143 0 0.340753726149949 0.0719771307423286 0 0.379680571201526 0.0798529389914981 0 0.417585409739423 0.0933182629491223 0 0.453632399248149 0.112076177718994 0 0.487026664784319 0.135713051077065 0 0.517031826825285 0.163707664507494 0 0.542986239230726 0.195442706632305 0 0.564317579252682 0.230218385592146 0 0.580555467868567 0.267267860210514 0 0.591341842145246 0.30577414966762 0 0.59643885091236 0.344888148807408 0 0.595734099636818 0.383747351820781 0 0.589243128843305 0.421494871427657 0 0.577109071428973 0.457298334164419 0 0.559599496428897 0.490368235115295 0 0.54521135391298 0.510426963862521 0 0.505691318066918 0.548911759215909 0 0.480029890545397 0.565822453063398 0 0.452167969989397 0.579245739310597 0 0.414793047760636 0.590839830473633 0 0.387549696601947 0.595347993911413 0 0 0 0 0 1 0 1 1 0 1 0 0.596856471680698 -0.35968564716807 0.528767323325976 -0.528767323325976 0.593950987165499 -0.320566576649549 0.585298602682836 -0.28172902686645 0.571090112629678 -0.244029407621804 0.551638829515073 -0.20829903612465 0.527373675081866 -0.175325805550202 0.498829722120301 -0.145836811146726 0.46663639553669 -0.12048231700219 0.431503592856295 -0.0998214170207556 0.394206030218306 -0.0843097063000113 0.355566159050547 -0.0742892347683698 0.316436030129668 -0.0699809646157379 0.277678504943815 -0.0714798978392402 0.240148228667457 -0.0787529813468598 0.204672784314793 -0.0916398358137169 0.172034443642927 -0.109856292218921 0.142952917217078 -0.133000658078549 0.11806948401744 -0.160562575197558 0.0979328505469792 -0.191934273617677 0.0829870512620523 -0.226423973599587 0.0735616571343921 -0.263271140111263 0.0698645082562143 -0.301663253444568 0.0719771307423286 -0.340753726149949 0.0798529389914981 -0.379680571201526 0.0933182629491223 -0.417585409739423 0.112076177718994 -0.453632399248149 0.135713051077065 -0.487026664784319 0.163707664507494 -0.517031826825285 0.195442706632305 -0.542986239230726 0.230218385592146 -0.564317579252682 0.267267860210514 -0.580555467868567 0.30577414966762 -0.591341842145246 0.344888148807408 -0.59643885091236 0.383747351820781 -0.595734099636818 0.421494871427657 -0.589243128843305 0.457298334164419 -0.577109071428973 0.490368235115295 -0.559599496428897 0.510426963862521 -0.54521135391298 0.548911759215909 -0.505691318066918 0.565822453063398 -0.480029890545397 0.579245739310597 -0.452167969989397 0.590839830473633 -0.414793047760636 0.595347993911413 -0.387549696601947 0 0 1 0 1 -1 0 -1 15 45 16 28 48 29 47 37 36 47 38 37 47 39 38 47 2 39 36 35 48 30 29 48 43 42 47 47 36 48 27 48 28 31 30 48 14 45 15 18 45 19 26 48 27 32 31 48 40 2 47 46 43 47 17 45 18 25 48 26 46 3 1 46 4 3 46 5 4 46 6 5 46 7 6 46 8 7 46 9 8 33 32 48 46 10 9 46 11 10 46 44 43 46 1 44 12 11 46 12 46 13 13 46 14 24 48 25 14 46 45 45 48 24 41 40 47 34 33 48 45 20 19 16 45 17 45 21 20 45 22 21 45 23 22 45 24 23 42 41 47 35 34 48 
4 2 1 0
0 1 0 1 1 0 1 1 1 0 1 1 0 0 0 1 1 1 1 0 4 2 1 3 2 4 
90 88 1 0.000736527405515072
3.55618312575245e-17 0.35968564716807 0.596856471680698 1 0.693018980501403 0.930189805014032 1 0.86210065665931 0.862100656659309 1 0.653899909982883 0.927284320498832 1 0.615062360199784 0.91863193601617 1 0.577362740955137 0.904423445963012 1 0.541632369457983 0.884972162848406 1 0.508659138883536 0.860707008415199 1 0.479170144480059 0.832163055453635 1 0.453815650335524 0.799969728870023 1 0.433154750354089 0.764836926189629 1 0.417643039633345 0.72753936355164 1 0.407622568101703 0.68889949238388 1 0.403314297949071 0.649769363463002 1 0.404813231172574 0.611011838277148 1 0.412086314680193 0.573481562000791 1 0.42497316914705 0.538006117648126 1 0.443189625552255 0.505367776976261 1 0.466333991411882 0.476286250550411 1 0.493895908530891 0.451402817350773 1 0.52526760695101 0.431266183880313 1 0.559757306932921 0.416320384595386 1 0.596604473444597 0.406894990467725 1 0.634996586777901 0.403197841589548 1 0.674087059483282 0.405310464075662 1 0.71301390453486 0.413186272324831 1 0.750918743072756 0.426651596282456 1 0.786965732581482 0.445409511052327 1 0.820359998117653 0.469046384410398 1 0.850365160158618 0.497040997840828 1 0.876319572564059 0.528776039965638 1 0.897650912586015 0.56355171892548 1 0.913888801201901 0.600601193543847 1 0.924675175478579 0.639107483000953 1 0.929772184245693 0.678221482140742 1 0.929067432970152 0.717080685154114 1 0.922576462176639 0.754828204760991 1 0.910442404762306 0.790631667497752 1 0.892932829762231 0.823701568448628 1 0.878544687246313 0.843760297195854 1 0.693018980501403 0.930189805014032 1 0.839024651400252 0.882245092549242 1 0.81336322387873 0.899155786396732 1 0.785501303322731 0.91257907264393 1 0.748126381093969 0.924173163806966 1 0.72088302993528 0.928681327244747 3.55618312575245e-17 0.35968564716807 0.596856471680698 0 0.528767323325976 0.528767323325976 0 0.505691318066918 0.548911759215909 0 0.480029890545397 0.565822453063398 0 0.452167969989397 0.579245739310597 0 0.414793047760636 0.590839830473633 0 0.387549696601947 0.595347993911413 0 0.320566576649549 0.593950987165499 0 0.28172902686645 0.585298602682836 0 0.244029407621804 0.571090112629678 0 0.20829903612465 0.551638829515073 0 0.175325805550202 0.527373675081866 0 0.145836811146726 0.498829722120301 0 0.12048231700219 0.46663639553669 0 0.0998214170207557 0.431503592856295 0 0.0843097063000114 0.394206030218306 0 0.0742892347683698 0.355566159050547 0 0.0699809646157379 0.316436030129668 0 0.0714798978392402 0.277678504943815 0 0.0787529813468597 0.240148228667457 0 0.0916398358137169 0.204672784314793 0 0.109856292218921 0.172034443642927 0 0.133000658078549 0.142952917217078 0 0.160562575197558 0.11806948401744 0 0.191934273617677 0.0979328505469792 0 0.226423973599587 0.0829870512620523 0 0.263271140111263 0.0735616571343921 0 0.301663253444568 0.0698645082562143 0 0.340753726149949 0.0719771307423286 0 0.379680571201526 0.0798529389914981 0 0.417585409739423 0.0933182629491223 0 0.453632399248149 0.112076177718994 0 0.487026664784319 0.135713051077065 0 0.517031826825285 0.163707664507494 0 0.542986239230726 0.195442706632305 0 0.564317579252682 0.230218385592146 0 0.580555467868567 0.267267860210514 0 0.591341842145246 0.30577414966762 0 0.59643885091236 0.344888148807408 0 0.595734099636818 0.383747351820781 0 0.589243128843305 0.421494871427657 0 0.577109071428973 0.457298334164419 0 0.559599496428897 0.490368235115295 0 0.54521135391298 0.510426963862521 0 1.19294233413265 0 2.29848393091778 5.54787085436292 2.32893432376802 0.148632827944374 2.28581302392047 0.297265655772232 2.27149428528559 0.445898483517852 2.25584344649314 0.594531311206696 2.23920556907769 0.743164138857295 2.2219475187333 0.89179696648284 2.2044498773868 1.04042979409248 2.1870985231539 1.18906262169239 2.1702760942955 1.33769544928659 2.15435353949539 1.48632827687762 2.1396819429835 1.63496110446699 2.12658479923242 1.7835939320556 2.11535089815809 1.9322267596439 2.10622796795904 2.08085958723213 2.09941720893185 2.22949241482035 2.09506883780371 2.37812524240857 2.09327874832659 2.52675806999674 2.09408638008054 2.67539089758482 2.09747387363724 2.8240237251728 2.10336657230518 2.97265655276032 2.11163457246782 3.1212893803478 2.12209546234322 3.26992220793536 2.13451861626791 3.4185550355229 2.148630143878 3.56718786311035 2.16411887415227 3.71582069069781 2.18064322955069 3.86445351828556 2.19783879128458 4.01308634587415 2.21532636156777 4.1617191734644 2.23272033351186 4.31035200105764 2.24963718414141 4.45898482865595 2.26570391081879 4.60761765626269 2.28056623618149 4.75625048388306 2.29389641150782 4.90488331152501 2.30540045324075 5.05351613920024 2.31482465221245 5.20214896692543 2.32196119992585 5.3507817947237 2.32665278106248 5.44932632451484 2.3283625391194 6.28318530717958 2.29848393091778 5.67042326359794 2.32805042233585 5.7929756722575 2.32541197685867 5.91552808076174 2.3210585648232 6.06908738109329 2.31328535180483 6.17613634388935 2.30643043479374 6.28318530717959 1.19294233413265 5.54787085436292 1.22339272698289 5.67042326359813 1.22250882555079 5.79297567225657 1.2198703800736 5.91552808076095 1.21551696803821 6.06908738109411 1.2077437550195 6.17613634389017 1.20088883800861 0.148632827944337 1.18027142713549 0.297265655772149 1.16595268850082 0.44589848351776 1.15030184970853 0.594531311206629 1.13366397229325 0.743164138857275 1.11640592194909 0.89179696648287 1.09890828060292 1.04042979409256 1.08155692637034 1.1890626216925 1.06473449751219 1.33769544928673 1.04881194271216 1.48632827687776 1.03414034620016 1.63496110446714 1.02104320244878 1.78359393205573 1.00980930137406 1.93222675964399 1.00068637117463 2.08085958723216 0.993875612147148 2.22949241482033 0.989527241018857 2.37812524240852 0.987737151541683 2.52675806999668 0.988544783295583 2.6753908975848 0.991932276852169 2.82402372517282 0.997824975520043 2.97265655276053 1.00609297568263 3.12128938034815 1.016553865558 3.2699222079357 1.02897701948271 3.4185550355231 1.04308854709281 3.56718786311035 1.05857727736706 3.71582069069759 1.07510163276543 3.86445351828516 1.09229719449924 4.01308634587359 1.10978476478236 4.16171917346374 1.1271787367264 4.31035200105692 1.14409558735593 4.45898482865525 1.16016231403336 4.60761765626205 1.17502463939614 4.75625048388254 1.18835481472258 4.90488331152466 1.1998588564556 5.05351613920007 1.20928305542735 5.20214896692541 1.21641960314076 5.35078179472373 1.22111118427737 5.44932632451486 1.22282094233428 4 2 1 4 1 54 5 54 55 5 4 54 6 5 55 6 55 56 7 6 56 7 56 57 8 7 57 8 57 58 9 8 58 9 58 59 10 9 59 10 59 60 11 10 60 11 60 61 12 11 61 12 61 62 13 12 62 13 62 63 14 13 63 14 63 64 15 14 64 15 64 65 16 15 65 16 65 66 17 16 66 17 66 67 18 17 67 18 67 68 19 18 68 19 68 69 70 19 69 20 19 70 71 20 70 21 20 71 72 21 71 22 21 72 73 22 72 23 22 73 74 23 73 24 23 74 75 24 74 25 24 75 76 25 75 26 25 76 77 26 76 27 26 77 78 27 77 28 27 78 79 28 78 29 28 79 80 29 79 30 29 80 81 30 80 31 30 81 82 31 81 32 31 82 83 32 82 33 32 83 84 33 83 34 33 84 85 34 84 35 34 85 86 35 85 36 35 86 87 36 86 37 36 87 88 37 87 38 37 88 89 38 88 39 38 89 90 39 89 40 39 90 48 40 90 3 40 48 42 3 48 42 48 49 43 42 49 43 49 50 44 43 50 44 50 51 45 44 51 45 51 52 46 45 52 46 52 53 41 53 47 41 46 53 

TShapes 48
Ve
1e-07
1 0 0
0 0

0101101
*
Ve
1e-07
0 0 0
0 0

0101101
*
Ed
 1e-07 1 1 0
1  1 0 0 1
2  1 1 0 0 1
2  2 2 0 0 1
6  1 1 0
6  2 2 0
0

0101000
-48 0 +47 0 *
Ve
1e-07
1 0 1
0 0

0101101
*
Ed
 1e-07 1 1 0
1  2 0 0 1
2  3 3 0 0 1
2  4 1 0 0 1
6  3 1 0
6  4 3 0
0

0101000
-45 0 +48 0 *
Ve
1e-07
0 0 1
0 0

0101101
*
Ed
 1e-07 1 1 0
1  3 0 0 1
2  5 1 0 0 1
2  6 4 0 0 1
6  5 1 0
6  6 4 0
0

0101000
-45 0 +43 0 *
Ed
 1e-07 1 1 0
1  4 0 0 1
2  7 5 0 0 1
2  8 1 0 0 1
6  7 1 0
6  8 5 0
0

0101000
-43 0 +47 0 *
Wi

0101000
-46 0 -44 0 +42 0 +41 0 *
Fa
0  1e-07 1 0
2  1
0101000
+40 0 *
Ve
1e-07
0 1 0
0 0

0101101
*
Ed
 1e-07 1 1 0
1  5 0 0 1
2  9 5 0 0 1
2  10 2 0 0 1
6  9 2 0
6  10 5 0
0

0101000
-38 0 +47 0 *
Ve
1e-07
1 1 0
0 0

0101101
*
Ed
 1e-07 1 1 0
1  6 0 0 1
2  11 6 0 0 1
2  12 2 0 0 1
6  11 2 0
6  12 6 0
0

0101000
-36 0 +38 0 *
Ed
 1e-07 1 1 0
1  7 0 0 1
2  13 3 0 0 1
2  14 2 0 0 1
6  13 2 0
6  14 3 0
0

0101000
-36 0 +48 0 *
Wi

0101000
-37 0 -35 0 +34 0 +46 0 *
Fa
0  1e-07 2 0
2  2
0101000
+33 0 *
Ve
2.00001e-07
1 0.693018980501403 0.930189805014032
0 0

0101101
*
Ve
1e-07
1 0.86210065665931 0.862100656659309
0 0

0101101
*
Ed
 1e-07 1 1 0
1  8 0 0.735314452816668 6.28318530717959
2  15 3 0 0.735314452816668 6.28318530717959
2  16 7 0 0.735314452816668 6.28318530717959
6  15 7 0
6  16 3 0
0

0101000
+31 0 -30 0 *
Ed
 1e-07 1 1 0
1  9 0 0 0.735314452816668
2  17 3 0 0 0.735314452816668
2  18 7 0 0 0.735314452816668
6  17 7 0
6  18 3 0
0

0101000
+30 0 -31 0 *
Wi

0101000
-29 0 -28 0 *
Ve
1e-07
1 1 1
0 0

0101101
*
Ed
 1e-07 1 1 0
1  10 0 0 1
2  19 3 0 0 1
2  20 4 0 0 1
6  19 3 0
6  20 4 0
0

0101000
-26 0 +45 0 *
Ed
 1e-07 1 1 0
1  11 0 0 1
2  21 3 0 0 1
2  22 6 0 0 1
6  21 3 0
6  22 6 0
0

0101000
-26 0 +36 0 *
Wi

0101000
-44 0 -25 0 +34 0 +24 0 *
Fa
0  1e-07 3 0
2  3
0101000
+27 0 +23 0 *
Ve
1e-07
0 1 1
0 0

0101101
*
Ed
 1e-07 1 1 0
1  12 0 0 1
2  23 5 0 0 1
2  24 4 0 0 1
6  23 4 0
6  24 5 0
0

0101000
-21 0 +43 0 *
Ed
 1e-07 1 1 0
1  13 0 0 1
2  25 6 0 0 1
2  26 4 0 0 1
6  25 4 0
6  26 6 0
0

0101000
-26 0 +21 0 *
Wi

0101000
-20 0 -19 0 +25 0 +42 0 *
Fa
0  1e-07 4 0
2  4
0101000
+18 0 *
Ve
2.00001e-07
3.55618312575245e-17 0.35968564716807 0.596856471680698
0 0

0101101
*
Ve
1e-07
0 0.528767323325976 0.528767323325976
0 0

0101101
*
Ed
 1e-07 1 1 0
1  14 0 0.735314452816668 6.28318530717959
2  27 5 0 0.735314452816668 6.28318530717959
2  28 7 0 0.735314452816668 6.28318530717959
6  27 7 0
6  28 5 0
0

0101000
+16 0 -15 0 *
Ed
 1e-07 1 1 0
1  15 0 0 0.735314452816668
2  29 5 0 0 0.735314452816668
2  30 7 0 0 0.735314452816668
6  29 7 0
6  30 5 0
0

0101000
+15 0 -16 0 *
Wi

0101000
-14 0 -13 0 *
Ed
 1e-07 1 1 0
1  16 0 0 1
2  31 5 0 0 1
2  32 6 0 0 1
6  31 5 0
6  32 6 0
0

0101000
-21 0 +38 0 *
Wi

0101000
-41 0 -20 0 +37 0 +11 0 *
Fa
0  1e-07 5 0
2  5
0101000
+12 0 +10 0 *
Wi

0101000
-35 0 -24 0 +19 0 +11 0 *
Fa
0  1e-07 6 0
2  6
0101000
+8 0 *
Ed
 1e-07 1 1 0
1  17 0 1.19294233413265 2.29848393091778
3  33 34CN 7 0 1.19294233413265 2.29848393091778
7  33 34 7 0
0

0101000
+16 0 -31 0 *
Wi

0101000
-6 0 -29 0 -28 0 +6 0 +13 0 +14 0 *
Fa
0  1e-07 7 0
2  7
0101000
+5 0 *
Sh

0101000
-39 0 -32 0 +22 0 +17 0 -9 0 +7 0 -4 0 *
So

0100000
+3 0 *
Co

1100000
+2 0 *

+1 0 