DBRep_DrawableShape

CASCADE Topology V1, (c) Matra-Datavision
Locations 0
Curve2ds 6
1 0 1 1 0 
2 0 0 1 0 0 1 0.20000000000000001
1 6.2831853071795862 0 0 1 
1 0 0 0 1 
1 0 0 1 0 
2 0 0 1 0 0 1 0.20000000000000001
Curves 3
2 0 0 1 0 0 1 1 0 0 0 1 0 0.20000000000000001
1 0.20000000000000001 -4.8984254152895092e-017 0 0 0 1 
2 0 0 0 0 0 1 1 0 0 0 1 0 0.20000000000000001
Polygon3D 0
PolygonOnTriangulations 0
Surfaces 3
2 0 0 0 0 0 1 1 0 0 0 1 0 0.20000000000000001
1 0 0 1 0 0 1 1 0 0 0 1 0 
1 0 0 0 0 0 1 1 0 0 0 1 0 
Triangulations 0

TShapes 13
Ve
1e-007
0.2 -4.89842541528951e-017 1
0 0

0101101
*
Ed
 1e-007 1 1 0
1  1 0 0 6.28318530717959
2  1 1 0 0 6.28318530717959
2  2 2 0 0 6.28318530717959
0

0101100
+13 0 -13 0 *
Ve
1e-007
0.2 -4.89842541528951e-017 0
0 0

0101101
*
Ed
 1e-007 1 1 0
1  2 0 0 1
3  3 4CN 1 0 0 1
0

0101000
-13 0 +11 0 *
Ed
 1e-007 1 1 0
1  3 0 0 6.28318530717959
2  5 1 0 0 6.28318530717959
2  6 3 0 0 6.28318530717959
0

0101100
+11 0 -11 0 *
Wi

0101000
-12 0 +10 0 +9 0 -10 0 *
Fa
0  1e-007 1 0

0111000
+8 0 *
Wi

0101000
+12 0 *
Fa
0  1e-007 2 0

0111000
+6 0 *
Wi

0101000
-9 0 *
Fa
0  1e-007 3 0

0111000
-4 0 *
Sh

0101100
+7 0 +5 0 -3 0 *
So

1100100
+2 0 *

+1 0 