DBRep_DrawableShape

CASCADE Topology V1, (c) Matra-Datavision
Locations 0
Curve2ds 14
1 0 1 1 0 
2 0 0 1 0 0 1 0.25
1 6.2831853071795862 0 0 1 
1 0 0 0 1 
1 0 0 1 0 
2 0 0 1 0 0 1 0.25
1 0 1.5707963267948966 1 0 
1 6.2831853071795862 -6.2831853071795862 0 1 
1 0 -6.2831853071795862 0 1 
1 0 -1.5707963267948966 1 0 
1 0 1.5707963267948966 1 0 
1 6.2831853071795862 -6.2831853071795862 0 1 
1 0 -6.2831853071795862 0 1 
1 0 -1.5707963267948966 1 0 
Curves 5
2 0 0 1 0 0 1 1 0 0 0 1 0 0.25
1 0.25 -6.1230317691118863e-017 0 0 0 1 
2 0 0 0 0 0 1 1 0 0 0 1 0 0.25
2 0.14999999999999999 0 0.75 -2.4492127076447545e-016 -1 0 1 -2.4492127076447545e-016 0 0 0 1 0.025000000000000001
2 0 0.14999999999999999 0.80000000000000004 -2.4492127076447545e-016 -1 0 1 -2.4492127076447545e-016 0 0 0 1 0.025000000000000001
Polygon3D 0
PolygonOnTriangulations 0
Surfaces 5
2 0 0 0 0 0 1 1 0 0 0 1 0 0.25
1 0 0 1 0 0 1 1 0 0 0 1 0 
1 0 0 0 0 0 1 1 0 0 0 1 0 
4 0.14999999999999999 0 0.75 0 0 1 1 0 0 0 1 0 0.025000000000000001
4 0 0.14999999999999999 0.80000000000000004 0 0 1 1 0 0 0 1 0 0.025000000000000001
Triangulations 0

TShapes 30
Ve
1e-007
0.25 -6.12303176911189e-017 1
0 0

0101101
*
Ed
 1e-007 1 1 0
1  1 0 0 6.28318530717959
2  1 1 0 0 6.28318530717959
2  2 2 0 0 6.28318530717959
0

0101100
+30 0 -30 0 *
Ve
1e-007
0.25 -6.12303176911189e-017 0
0 0

0101101
*
Ed
 1e-007 1 1 0
1  2 0 0 1
3  3 4CN 1 0 0 1
0

0101000
-30 0 +28 0 *
Ed
 1e-007 1 1 0
1  3 0 0 6.28318530717959
2  5 1 0 0 6.28318530717959
2  6 3 0 0 6.28318530717959
0

0101100
+28 0 -28 0 *
Wi

0101000
-29 0 +27 0 +26 0 -27 0 *
Fa
0  1e-007 1 0

0111000
+25 0 *
Wi

0101000
+29 0 *
Fa
0  1e-007 2 0

0111000
+23 0 *
Wi

0101000
-26 0 *
Fa
0  1e-007 3 0

0111000
-21 0 *
Sh

0101000
+24 0 +22 0 -20 0 *
Ve
1e-007
0.15 0 0.775
0 0

0101101
*
Ed
 1e-007 1 1 1
2  7 4 0 0 6.28318530717959
0

0101100
+18 0 -18 0 *
Ve
1e-007
0.15 0 0.725
0 0

0101101
*
Ed
 1e-007 1 1 0
1  4 0 4.71238898038469 7.85398163397448
3  8 9CN 4 0 4.71238898038469 7.85398163397448
0

0101000
-18 0 +16 0 *
Ed
 1e-007 1 1 1
2  10 4 0 0 6.28318530717959
0

0101100
+16 0 -16 0 *
Wi

0101000
-17 0 +15 0 +14 0 -15 0 *
Fa
0  1e-007 4 0

0111000
+13 0 *
Sh

0101000
-12 0 *
Ve
1e-007
1.53075794227797e-018 0.15 0.825
0 0

0101101
*
Ed
 1e-007 1 1 1
2  11 5 0 0 6.28318530717959
0

0101100
+10 0 -10 0 *
Ve
1e-007
1.53075794227797e-018 0.15 0.775
0 0

0101101
*
Ed
 1e-007 1 1 0
1  5 0 4.71238898038469 7.85398163397448
3  12 13CN 5 0 4.71238898038469 7.85398163397448
0

0101000
-10 0 +8 0 *
Ed
 1e-007 1 1 1
2  14 5 0 0 6.28318530717959
0

0101100
+8 0 -8 0 *
Wi

0101000
-9 0 +7 0 +6 0 -7 0 *
Fa
0  1e-007 5 0

0111000
+5 0 *
Sh

0101000
-4 0 *
So

0100000
+19 0 +11 0 +3 0 *
Co

1100000
+2 0 *

+1 0 