ply
format ascii 1.0
comment created by platoply
element vertex 12
property float32 x
property float32 y
property float32 z
element face 20
property list uint8 int32 vertex_indices
end_header
0 -0.525731 0.850651 
0.850651 0 0.525731 
0.850651 0 -0.525731 
-0.850651 0 -0.525731 
-0.850651 0 0.525731 
-0.525731 0.850651 0 
0.525731 0.850651 0 
0.525731 -0.850651 0 
-0.525731 -0.850651 0 
0 -0.525731 -0.850651 
0 0.525731 -0.850651 
0 0.525731 0.850651 
3 6 2 1 
3 2 7 1 
3 5 4 3 
3 8 3 4 
3 11 5 6 
3 10 6 5 
3 2 10 9 
3 3 9 10 
3 9 8 7 
3 0 7 8 
3 1 0 11 
3 4 11 0 
3 10 2 6 
3 11 6 1 
3 10 5 3 
3 11 4 5 
3 9 7 2 
3 0 1 7 
3 8 9 3 
3 0 8 4 
